<?xml version="1.0" standalone="no"?>
<!DOCTYPE svg PUBLIC "-//W3C//DTD SVG 20010904//EN"
 "http://www.w3.org/TR/2001/REC-SVG-20010904/DTD/svg10.dtd">
<svg version="1.0" xmlns="http://www.w3.org/2000/svg"
 width="608.000000pt" height="608.000000pt" viewBox="0 0 608.000000 608.000000"
 preserveAspectRatio="xMidYMid meet">
<metadata>
Created by potrace 1.16, written by Peter Selinger 2001-2019
</metadata>
<g transform="translate(0.000000,608.000000) scale(0.100000,-0.100000)"
fill="#000000" stroke="none">
<path d="M2963 5979 c-230 -22 -518 -150 -744 -331 -212 -170 -206 -162 -357
-403 -79 -127 -117 -255 -137 -463 -14 -156 -6 -370 19 -517 25 -141 28 -174
15 -229 -9 -42 -9 -76 1 -155 7 -55 16 -101 21 -101 17 0 69 -107 84 -175 9
-38 29 -113 45 -167 26 -84 34 -98 63 -115 56 -33 84 -36 364 -38 150 -1 275
-4 279 -7 11 -12 -7 -28 -29 -28 -33 0 -30 -35 3 -38 40 -4 54 -7 68 -16 10
-6 13 -2 11 15 -5 38 17 68 115 160 71 67 101 104 130 160 39 75 127 204 155
227 18 14 75 16 100 2 17 -8 111 -150 174 -260 14 -26 65 -80 119 -127 81 -70
138 -142 138 -174 0 -5 -17 -9 -38 -9 -30 0 -52 11 -110 55 -86 65 -109 72
-160 52 -41 -16 -298 -21 -308 -5 -3 4 -22 8 -42 8 -42 0 -89 -28 -176 -106
l-56 -51 20 -26 c21 -26 23 -27 126 -24 91 2 105 4 110 20 8 24 -2 33 -20 18
-11 -9 -15 -8 -19 3 -14 35 61 54 124 32 24 -9 68 -16 98 -16 42 0 51 -3 43
-12 -7 -9 -3 -33 14 -83 27 -79 29 -98 10 -72 -18 23 -26 22 -26 -6 0 -28 34
-50 63 -41 38 13 50 10 127 -27 113 -56 259 -176 281 -233 7 -17 19 -39 27
-48 9 -10 10 -18 4 -18 -6 0 -37 26 -69 58 -57 57 -143 128 -143 119 0 -3 6
-17 14 -32 13 -24 13 -30 1 -42 -10 -9 -20 -11 -32 -5 -172 86 -197 94 -293
99 -93 5 -96 4 -160 -30 -85 -45 -115 -54 -235 -71 -67 -9 -118 -22 -153 -40
-28 -14 -52 -22 -52 -17 0 6 31 41 68 79 80 79 228 170 333 204 55 17 73 28
84 51 15 31 11 52 -11 61 -8 3 -14 12 -14 21 0 19 -21 19 -67 0 -19 -8 -43
-15 -53 -15 -10 0 -24 -7 -31 -17 -8 -9 -51 -40 -96 -70 -102 -68 -193 -154
-223 -213 -12 -25 -28 -52 -34 -60 -15 -18 -56 -118 -56 -136 0 -7 36 -34 80
-60 44 -26 109 -74 145 -106 109 -96 156 -115 363 -150 59 -9 90 -9 149 1 139
23 183 39 270 99 46 31 91 62 101 67 9 6 32 22 50 38 18 15 36 27 41 27 4 0 7
-27 7 -59 -1 -33 1 -59 4 -59 29 2 32 -3 13 -24 -11 -13 -30 -41 -41 -63 -25
-50 -76 -99 -167 -161 -92 -63 -95 -63 -429 17 -44 10 -55 9 -100 -10 -77 -31
-238 -62 -286 -55 -48 8 -100 52 -100 86 0 12 -8 57 -18 98 -23 97 -72 162
-154 209 -63 35 -116 87 -169 163 -17 23 -38 50 -48 58 -9 8 -43 51 -76 95
-32 44 -81 103 -107 132 -54 58 -95 142 -138 278 -41 134 -41 133 -49 232 -4
51 -10 95 -13 98 -10 11 -33 -6 -58 -42 -21 -31 -26 -50 -28 -127 l-4 -91 41
-52 c44 -55 56 -91 18 -52 -13 13 -37 36 -54 51 -16 15 -38 48 -48 75 -17 45
-18 52 -3 123 9 41 29 104 46 140 16 36 33 82 36 103 6 34 4 41 -36 82 -24 24
-55 47 -69 50 -23 6 -28 2 -39 -27 -29 -80 -22 -262 16 -451 12 -57 59 -172
93 -227 6 -8 21 -40 34 -71 27 -62 56 -95 104 -115 22 -10 34 -23 38 -42 3
-15 15 -58 27 -97 11 -38 29 -106 40 -150 11 -44 28 -98 38 -120 28 -60 33
-85 20 -100 -6 -7 -15 -27 -20 -44 -8 -27 -5 -33 23 -55 l31 -24 -17 -79 c-22
-102 -21 -128 4 -163 17 -22 22 -45 23 -99 2 -55 6 -74 20 -84 10 -7 17 -20
15 -28 -4 -24 22 -79 38 -79 9 0 13 -6 9 -15 -3 -8 -1 -15 5 -15 6 0 9 -6 6
-12 -2 -7 1 -20 8 -28 22 -26 28 -60 11 -60 -8 0 -18 5 -21 10 -14 23 -27 9
-21 -22 7 -38 33 -69 51 -62 7 3 15 -4 18 -16 5 -20 7 -21 36 -6 40 21 51 20
51 -4 0 -21 -32 -44 -64 -46 -36 -3 -110 52 -130 96 -9 22 -24 40 -32 40 -8 0
-14 7 -14 15 0 8 -4 15 -10 15 -5 0 -7 -7 -3 -16 4 -12 1 -15 -13 -12 -14 2
-19 12 -19 33 0 27 4 30 44 37 50 8 79 28 43 28 -37 0 -59 20 -55 49 4 24 3
23 -13 -7 -9 -18 -29 -39 -44 -47 -24 -12 -27 -19 -24 -57 2 -24 6 -57 9 -73
4 -17 1 -73 -5 -125 -7 -52 -13 -106 -14 -120 -1 -26 -57 -90 -78 -90 -7 0 -4
-6 6 -13 14 -10 17 -24 15 -60 -3 -31 0 -48 8 -52 9 -3 10 -11 4 -27 -6 -13
-13 -41 -16 -62 l-6 -39 -19 30 c-23 39 -39 48 -46 29 -11 -28 -22 -8 -38 68
-13 58 -21 75 -37 79 -15 4 -25 -3 -40 -26 -10 -18 -19 -39 -18 -47 0 -10 3
-8 9 5 7 18 8 18 15 -7 4 -16 4 -35 1 -44 -6 -15 -9 -15 -29 -1 -17 11 -22 25
-23 58 0 24 5 49 13 57 7 7 13 21 13 31 0 10 18 36 40 59 42 43 50 62 25 62
-9 0 -15 9 -15 25 0 14 4 25 8 25 10 0 36 70 28 77 -9 9 -57 -7 -51 -17 3 -5
-1 -20 -10 -33 -8 -13 -12 -27 -8 -30 3 -4 2 -7 -4 -7 -6 0 -14 7 -17 16 -11
28 -6 54 9 54 8 0 19 9 25 20 6 11 16 17 25 14 17 -7 75 32 75 49 0 7 9 29 20
50 11 20 20 47 21 59 0 13 15 52 34 88 19 36 39 78 46 93 6 16 17 26 24 23 7
-2 22 2 34 11 24 16 21 44 -6 75 -10 11 -14 30 -11 53 2 19 3 35 2 35 0 0 -15
-5 -33 -11 -22 -8 -31 -17 -31 -33 0 -19 -4 -22 -29 -18 -21 3 -48 -6 -87 -27
-32 -17 -65 -31 -73 -31 -9 0 -38 -12 -66 -25 -27 -14 -58 -25 -69 -25 -12 0
-16 -5 -12 -16 3 -8 2 -12 -4 -9 -6 4 -19 3 -31 0 -19 -6 -19 -8 -3 -19 23
-17 2 -31 -25 -16 -23 12 -31 13 -30 3 5 -29 -2 -35 -33 -29 -24 4 -42 0 -68
-16 -19 -12 -44 -27 -55 -33 -11 -6 -20 -21 -19 -33 1 -21 -1 -21 -22 -7 -21
14 -27 12 -91 -31 -37 -25 -70 -49 -73 -53 -3 -4 -15 -13 -27 -20 -13 -6 -23
-19 -23 -29 -1 -30 -25 -51 -58 -50 -18 1 -40 -6 -50 -15 -10 -10 -23 -17 -28
-17 -5 0 -29 -18 -53 -40 -34 -30 -49 -38 -67 -34 -18 5 -24 2 -24 -10 0 -9
-12 -19 -27 -22 -15 -4 -42 -16 -59 -26 -18 -10 -36 -18 -40 -17 -14 3 -44
-12 -44 -22 0 -5 23 0 50 11 59 23 63 24 58 8 -3 -7 -15 -15 -28 -18 -36 -8
-35 -27 2 -32 63 -10 133 18 189 75 37 36 59 47 59 27 0 -5 -5 -10 -10 -10 -7
0 -7 -7 1 -22 10 -19 12 -20 21 -4 14 26 1 66 -22 66 -10 0 -22 -4 -25 -10 -3
-5 -13 -10 -22 -10 -13 0 -13 3 -3 15 33 39 108 0 96 -50 -5 -20 -3 -25 12
-25 9 0 28 7 40 16 17 11 35 14 69 9 26 -3 51 -9 57 -12 6 -4 5 1 -2 10 -10
12 -11 20 -3 29 80 96 90 104 170 131 23 9 41 11 41 5 0 -14 -42 -47 -60 -48
-8 0 -28 -11 -43 -25 -29 -28 -38 -46 -10 -24 15 13 16 11 9 -11 -4 -14 -9
-33 -11 -42 -2 -9 -9 -26 -15 -38 -6 -11 -8 -25 -5 -30 3 -5 -1 -23 -10 -41
-9 -17 -17 -43 -17 -58 -1 -24 -12 -35 -68 -70 -41 -25 -79 -41 -98 -41 -17 0
-34 -5 -37 -10 -20 -32 -133 17 -150 63 -8 24 -6 31 10 43 10 8 25 14 32 14
22 0 14 -20 -12 -30 -14 -5 -25 -14 -25 -20 0 -17 49 -43 67 -35 15 7 13 9
-11 14 l-30 6 26 28 c27 29 48 33 78 17 38 -20 114 45 103 88 -5 20 -3 24 9
20 26 -11 40 6 23 28 -13 16 -16 17 -25 4 -6 -10 -10 -11 -10 -3 0 8 -9 11
-23 9 -15 -2 -21 -9 -19 -21 3 -14 -2 -17 -24 -12 -27 5 -94 -19 -94 -34 0 -4
13 -12 30 -18 32 -11 43 -45 13 -39 -10 2 -17 9 -16 15 4 17 -45 25 -70 12
-12 -7 -28 -21 -35 -31 -10 -14 -17 -16 -27 -8 -9 7 -21 7 -39 0 -15 -5 -40
-10 -55 -10 -15 0 -32 -5 -38 -11 -12 -12 -36 -3 -28 11 3 5 -18 8 -47 8 -58
-1 -142 -26 -193 -58 -43 -26 -64 -27 -40 0 23 26 11 25 -31 -1 -19 -11 -34
-27 -34 -35 0 -14 -32 -18 -105 -15 -23 2 -27 0 -15 -8 12 -9 10 -11 -10 -11
-28 0 -58 -16 -49 -25 4 -3 18 -1 33 5 37 14 73 13 78 -2 6 -16 85 9 111 35
17 17 20 17 36 3 10 -9 30 -16 44 -16 16 0 26 -5 24 -12 -2 -14 2 -14 46 -4
26 6 38 -6 17 -19 -15 -9 -12 -25 5 -25 8 0 12 6 9 14 -3 7 2 16 10 19 10 4
16 1 16 -8 0 -8 5 -15 11 -15 19 0 67 33 79 54 11 20 69 56 91 56 13 0 -96
-119 -144 -158 -9 -6 -21 -12 -27 -12 -6 0 -9 -8 -5 -18 4 -16 0 -19 -25 -20
-34 -1 -37 5 -13 24 16 12 16 12 -4 7 -14 -3 -23 -1 -23 6 0 6 -4 11 -10 11
-5 0 -10 -6 -10 -13 0 -41 -117 -104 -143 -78 -18 18 0 42 28 35 15 -4 25 -2
25 5 0 6 7 11 15 11 8 0 15 4 15 9 0 14 -121 23 -155 11 -58 -19 -65 -22 -65
-29 0 -3 10 -11 22 -16 34 -16 34 -35 0 -35 -40 0 -62 -9 -62 -25 0 -17 -59
-37 -96 -33 -21 2 -31 -4 -45 -27 -10 -16 -18 -45 -18 -64 l-1 -35 20 22 c25
26 36 28 44 6 5 -14 9 -14 22 -3 14 11 18 11 29 -4 16 -22 35 -22 35 1 0 12 2
14 8 4 5 -7 16 -10 25 -6 18 7 23 24 7 24 -5 0 -10 7 -10 15 0 16 10 31 44 65
23 24 68 28 60 6 -8 -20 34 -59 54 -51 13 5 14 8 3 14 -10 7 -9 10 3 14 9 4
16 13 16 22 0 8 5 15 11 15 6 0 8 -9 4 -20 -9 -29 17 -26 127 14 138 50 198
79 199 96 0 9 2 11 5 3 3 -7 12 -9 20 -6 7 3 11 10 7 16 -3 6 -1 7 6 3 6 -4
42 3 79 15 53 18 62 24 44 28 -13 3 -24 10 -25 16 -2 12 -33 8 -71 -11 -36
-17 -37 -17 -30 1 10 26 -14 17 -52 -19 -24 -23 -35 -40 -31 -51 5 -13 3 -14
-13 -5 -36 19 -33 32 19 82 45 43 57 49 89 47 68 -4 92 0 92 16 0 8 -7 15 -15
15 -20 0 -19 16 1 24 22 9 24 8 24 -9 0 -8 7 -15 15 -15 19 0 20 -19 1 -26
-12 -5 -11 -9 4 -24 9 -9 19 -23 22 -30 3 -9 33 -1 108 29 57 23 125 46 150
52 76 16 190 63 190 78 0 10 8 12 30 7 22 -4 32 -1 36 9 4 8 17 15 31 15 14 0
47 12 73 26 84 46 85 45 87 -156 3 -260 21 -583 38 -680 8 -47 15 -114 15
-150 0 -58 -3 -70 -30 -100 -16 -19 -29 -38 -30 -42 0 -5 20 -8 45 -8 37 0 44
3 43 18 -3 38 4 51 37 71 23 13 35 28 35 42 0 12 11 37 25 55 26 34 34 71 13
58 -8 -5 -9 -2 -4 12 18 47 19 77 3 86 -10 5 -17 17 -17 26 -1 9 -7 33 -14 53
-11 30 -10 38 1 45 11 7 12 15 4 37 -6 15 -15 27 -21 27 -13 0 37 77 55 84 15
5 12 -8 -11 -52 -12 -23 -8 -62 5 -62 4 0 12 5 18 11 7 7 13 7 17 1 3 -6 -4
-19 -16 -29 -27 -22 -29 -53 -5 -77 25 -26 39 -56 33 -71 -3 -8 1 -21 9 -29
19 -18 19 -24 0 -42 -8 -9 -15 -27 -15 -42 0 -16 -11 -37 -25 -51 -24 -22 -35
-48 -16 -36 5 3 12 1 16 -5 3 -5 -5 -14 -19 -19 -13 -6 -27 -20 -31 -33 -4
-13 -16 -31 -26 -41 -11 -10 -19 -22 -19 -27 0 -6 73 -10 184 -10 175 0 184 1
189 20 7 26 47 26 69 1 14 -17 29 -19 100 -18 70 2 83 5 86 20 2 12 -3 17 -17
17 -12 0 -21 5 -21 10 0 6 7 10 15 10 19 0 19 9 -1 31 -11 12 -13 27 -9 53 9
43 25 48 25 7 0 -40 25 -97 51 -115 26 -18 39 -13 39 15 0 26 14 24 34 -6 9
-14 25 -25 36 -25 10 0 22 -4 25 -10 4 -6 74 -10 176 -10 l170 0 -7 23 c-3 12
-16 35 -26 50 -22 31 -16 52 6 21 14 -18 15 -18 21 -1 9 21 25 22 25 2 0 -9 9
-33 20 -55 l20 -39 251 -1 c219 0 253 2 263 16 13 17 66 11 66 -8 0 -6 43 -8
110 -6 84 2 109 6 105 16 -5 13 4 23 63 68 35 28 42 20 14 -17 -20 -26 -35
-69 -23 -69 4 0 12 13 18 30 14 38 30 38 38 0 5 -23 12 -30 31 -30 19 0 24 5
24 26 0 22 2 25 15 14 12 -10 13 -16 4 -26 -10 -12 8 -14 108 -14 l119 0 -4
38 c-3 20 -10 40 -16 44 -8 5 -8 10 0 18 16 16 35 -11 41 -60 5 -37 8 -40 38
-40 29 0 32 3 28 24 -3 13 0 32 6 43 9 16 10 15 11 -9 0 -59 -4 -58 198 -58
l185 0 -19 22 c-19 21 -19 21 1 13 76 -30 104 -36 174 -33 l76 3 -45 23 c-25
13 -70 43 -100 67 -30 25 -80 62 -110 84 -31 21 -77 58 -104 82 l-48 44 17
140 c17 146 63 423 88 535 7 36 15 81 16 100 1 19 8 55 15 80 8 25 18 60 21
77 9 47 -12 42 -31 -7 -9 -22 -22 -40 -30 -40 -7 0 -16 -11 -20 -25 -10 -41
-27 -29 -21 14 4 30 1 41 -10 46 -14 5 -13 8 3 26 19 21 19 21 27 -13 l9 -33
11 25 c6 14 17 29 24 33 7 4 13 14 13 22 0 9 6 12 15 9 11 -5 15 1 15 20 0 17
-5 26 -16 26 -18 0 -53 38 -54 57 0 7 -3 12 -8 10 -10 -3 -53 41 -44 47 19 11
63 -8 68 -30 3 -13 12 -24 19 -24 7 0 18 -7 25 -15 12 -15 35 -11 25 5 -3 5
-1 11 5 15 5 3 10 -1 10 -9 0 -9 7 -16 16 -16 11 0 14 6 9 21 -4 13 -2 25 5
29 9 6 3 18 -21 43 -19 20 -34 44 -34 54 0 10 -9 19 -19 21 -11 2 -26 10 -33
18 -9 8 -25 11 -43 7 -19 -3 -30 -1 -30 5 0 6 16 14 36 18 50 9 121 -27 139
-70 14 -33 58 -80 67 -71 3 3 11 -2 19 -11 12 -15 11 -16 -9 -10 -16 5 -22 3
-22 -7 0 -8 -7 -20 -15 -27 -19 -15 -20 -50 -2 -50 8 0 36 -16 63 -36 46 -33
106 -64 125 -64 5 0 -16 26 -46 57 -57 60 -59 65 -45 98 7 18 9 16 23 -15 9
-20 27 -42 41 -50 17 -9 24 -19 21 -30 -6 -18 30 -40 65 -40 10 0 22 -4 25
-10 10 -17 51 -11 76 11 20 18 24 18 27 5 3 -13 8 -14 24 -5 11 6 17 17 14 25
-3 8 -1 14 4 14 5 0 9 16 8 35 -1 39 -42 89 -64 81 -7 -3 -27 8 -45 25 -19 17
-42 29 -59 29 -15 0 -39 9 -53 20 -14 11 -31 20 -39 20 -12 1 -31 24 -75 92
-10 15 -26 29 -35 32 -10 2 -18 10 -18 16 0 7 7 10 16 6 9 -3 24 -6 35 -6 11
0 19 -7 19 -17 1 -20 23 -53 35 -53 4 0 23 -13 42 -30 18 -16 40 -30 48 -30 8
0 29 -9 47 -20 18 -11 41 -20 51 -20 9 0 17 -6 17 -13 0 -8 18 -20 40 -27 21
-7 51 -26 66 -41 15 -16 36 -29 45 -29 10 0 21 -4 24 -10 3 -5 17 -10 31 -10
13 0 24 -4 24 -9 0 -5 11 -12 24 -15 27 -7 147 -115 128 -116 -19 0 -72 29
-72 39 0 13 -64 51 -86 51 -17 0 -17 -1 2 -16 19 -15 18 -15 -3 -11 -13 3 -25
1 -28 -3 -3 -4 -23 -6 -45 -3 -31 4 -40 2 -40 -9 0 -11 -17 -17 -67 -21 -84
-8 -99 -21 -47 -42 21 -9 60 -25 86 -37 31 -14 56 -18 75 -14 17 4 23 3 15 -2
-10 -6 1 -15 37 -30 64 -28 77 -28 85 3 4 14 13 25 20 25 8 0 16 6 19 14 6 16
61 26 79 15 10 -7 10 -13 -1 -31 -10 -16 -10 -23 -2 -26 17 -6 13 -30 -6 -40
-12 -7 -21 -5 -32 9 -13 15 -22 17 -46 11 -33 -9 -27 -15 34 -37 24 -8 43 -10
46 -4 10 15 25 10 19 -6 -4 -8 -2 -15 4 -15 6 0 17 -3 25 -6 9 -3 16 2 19 13
8 28 109 29 134 2 16 -17 16 -22 4 -30 -8 -5 -20 -7 -27 -4 -7 2 -15 0 -18 -6
-7 -10 18 -22 170 -80 99 -38 100 -38 120 -19 19 20 19 20 -25 21 -25 1 -52 2
-61 3 -19 1 -71 56 -66 70 2 6 13 12 25 14 16 3 19 -1 15 -16 -7 -27 46 -55
70 -37 21 15 22 35 3 35 -8 0 -19 15 -25 32 -13 36 -64 88 -87 88 -8 0 -14 5
-14 10 0 6 -6 10 -14 10 -9 0 -12 -8 -8 -25 2 -15 0 -25 -7 -25 -6 0 -11 4
-11 8 0 19 -42 53 -59 47 -19 -6 -71 29 -71 47 0 6 8 17 18 24 16 12 15 13 -8
22 -14 6 -38 24 -55 42 -34 36 -75 60 -104 60 -15 0 -19 6 -18 28 2 23 -5 30
-43 49 -53 26 -67 28 -50 8 18 -22 -1 -18 -25 5 -53 51 -105 90 -160 121 -33
18 -73 43 -90 55 -29 22 -126 69 -192 94 -18 7 -43 10 -55 7 -18 -4 -37 7 -83
49 -62 57 -219 145 -285 159 -19 4 -41 11 -50 16 -40 21 -81 37 -150 58 -137
42 -145 45 -148 70 -2 12 8 40 23 63 15 22 28 49 30 60 3 12 11 28 19 37 22
25 46 90 46 126 0 18 6 38 14 44 8 7 14 33 15 65 0 30 6 85 13 123 6 37 11 93
10 123 -2 85 20 141 68 168 40 23 74 80 87 147 3 17 18 55 33 85 41 82 67 178
95 347 20 120 23 161 15 195 -5 24 -10 63 -10 88 0 29 -9 62 -25 92 -23 42
-25 57 -21 130 5 95 -2 148 -18 153 -6 1 -63 9 -126 15 -151 17 -156 19 -252
88 -100 71 -139 82 -293 82 -133 0 -200 -14 -415 -87 -74 -25 -149 -45 -167
-45 -18 0 -37 -6 -44 -14 -6 -8 -21 -14 -32 -14 -11 0 -17 -3 -14 -6 3 -4 44
-6 89 -5 51 0 77 -2 68 -8 -21 -12 -311 -22 -335 -11 -16 7 -12 9 20 9 48 1
85 10 85 21 0 5 -9 6 -20 3 -22 -6 -100 24 -100 39 0 4 -5 8 -11 8 -6 0 -44
15 -84 34 -93 44 -144 54 -307 62 -111 6 -143 4 -193 -10 -81 -24 -164 -68
-219 -116 -26 -22 -57 -42 -69 -45 -65 -15 -186 -35 -214 -35 l-31 0 -7 68
c-3 37 -8 88 -11 115 -4 31 -2 47 5 47 13 0 71 119 71 147 0 10 7 40 15 67 19
63 19 103 0 114 -16 9 -15 12 36 114 5 10 9 24 9 31 0 8 7 28 16 46 9 17 20
63 26 102 8 54 19 84 47 124 62 92 136 164 213 207 70 39 105 48 204 52 49 2
101 9 115 14 34 13 311 61 449 78 30 3 77 15 105 26 55 22 73 20 185 -11 41
-12 120 -26 175 -30 98 -9 217 -27 363 -56 89 -17 160 -61 256 -160 77 -78
146 -177 146 -209 0 -12 14 -57 30 -99 17 -43 30 -91 30 -107 0 -60 44 -122
80 -113 42 11 51 -12 45 -111 -4 -50 -8 -101 -11 -113 -2 -13 0 -23 6 -23 5 0
10 24 10 53 0 28 5 70 10 92 23 97 -1 364 -47 524 -22 76 -88 216 -122 260
-16 20 -35 52 -43 71 -20 47 -214 230 -292 275 -34 19 -72 44 -86 54 -52 39
-152 102 -173 110 -13 5 -43 18 -67 29 -65 29 -257 92 -315 103 -27 5 -72 14
-98 19 -54 11 -84 11 -204 -1z m-1206 -1701 c-3 -8 -6 -5 -6 6 -1 11 2 17 5
13 3 -3 4 -12 1 -19z m2246 -187 c16 -6 63 -11 105 -12 84 -1 156 -21 195 -55
34 -30 40 -104 22 -276 -21 -186 -48 -295 -84 -329 -37 -35 -165 -60 -347 -68
-241 -10 -325 10 -417 101 -45 45 -69 80 -106 160 -46 97 -81 209 -81 254 0
12 7 6 18 -18 16 -35 102 -108 128 -108 6 0 23 -9 38 -21 31 -24 35 -12 5 19
-38 42 -14 42 46 1 33 -22 83 -51 110 -64 28 -14 57 -30 67 -37 13 -9 25 -9
60 1 93 28 128 43 168 74 89 68 105 77 171 99 38 12 69 27 69 33 0 19 -92 101
-165 148 -108 68 -162 90 -222 89 -29 0 -53 2 -53 4 0 25 212 28 273 5z
m-1478 -31 c-3 -5 -22 -12 -43 -16 -167 -29 -332 -122 -419 -236 -11 -15 -7
-16 35 -11 26 2 56 5 67 5 26 1 88 -38 138 -86 22 -21 64 -49 93 -63 l52 -24
69 19 c91 26 194 78 284 146 50 38 80 54 92 50 16 -5 18 -1 15 23 -1 16 2 27
8 26 19 -3 7 48 -17 73 -14 15 -18 24 -9 24 7 0 23 -11 36 -26 36 -38 32 -99
-15 -240 -52 -156 -101 -263 -140 -301 -57 -58 -241 -103 -414 -103 -196 1
-331 29 -365 78 -25 36 -59 140 -73 227 -15 89 -15 292 -1 327 18 43 67 63
267 107 56 13 348 14 340 1z m1292 -51 c24 -7 58 -25 75 -41 18 -17 47 -37 63
-45 17 -9 25 -18 19 -20 -7 -2 -38 10 -70 26 -38 20 -81 33 -119 37 -93 8
-105 12 -105 34 0 30 53 33 137 9z m608 -24 c0 -23 -5 -31 -21 -33 -24 -3 -38
20 -28 50 4 13 13 18 27 16 17 -2 22 -10 22 -33z m-1866 9 c8 -8 -5 -13 -79
-29 -135 -29 -169 -33 -163 -20 4 12 45 32 108 54 27 9 123 6 134 -5z m762
-28 c-7 -8 -16 -27 -21 -43 l-8 -28 -1 32 c-1 17 6 39 15 48 20 19 32 12 15
-9z m-1476 -17 c8 -23 -7 -45 -24 -35 -12 8 -15 39 -4 49 12 12 22 7 28 -14z
m1341 -70 c23 -19 16 -31 -13 -25 -17 4 -50 -2 -83 -13 -58 -21 -69 -16 -50
19 24 45 103 55 146 19z m429 -29 c21 -28 36 -53 33 -55 -2 -2 -30 13 -61 35
-57 38 -57 39 -35 54 12 9 23 16 24 16 1 0 19 -23 39 -50z m-936 27 c13 -17 1
-33 -55 -70 -49 -33 -94 -47 -152 -47 -48 0 -69 9 -124 53 -46 37 -48 53 -6
62 29 7 36 3 77 -44 26 -28 54 -51 65 -51 48 0 100 26 134 67 41 47 45 49 61
30z m1229 -19 c6 -30 -187 -113 -209 -91 -8 8 -1 13 23 18 18 4 47 19 63 35
67 61 116 76 123 38z m430 -475 c1 -38 -6 -110 -14 -160 -12 -80 -23 -108 -77
-207 -44 -82 -70 -120 -93 -133 -42 -25 -108 -101 -178 -208 -73 -111 -104
-145 -123 -138 -8 3 -18 0 -22 -6 -6 -9 -18 -6 -45 10 -21 12 -33 25 -28 28
12 8 32 68 32 97 0 24 -20 55 -55 83 -10 9 -44 41 -75 71 -30 31 -89 81 -130
112 -41 30 -100 81 -130 112 l-55 57 44 -16 c58 -20 97 -12 172 36 34 22 83
44 112 50 29 6 69 17 90 25 48 18 87 18 87 0 0 -7 23 -38 50 -67 28 -29 50
-57 50 -61 0 -4 9 -8 19 -8 11 0 23 -4 26 -10 7 -12 25 -13 25 -2 0 4 -11 20
-25 36 -14 16 -40 49 -58 72 -17 24 -40 44 -49 46 -37 6 1 29 83 49 46 11 95
26 109 34 14 7 60 27 103 44 102 41 115 50 128 88 17 52 27 39 27 -34z m-1053
-213 c3 -6 -1 -7 -9 -4 -18 7 -21 14 -7 14 6 0 13 -4 16 -10z m91 -574 c38
-13 93 -36 122 -51 50 -26 57 -27 104 -17 27 7 64 12 81 11 30 0 28 -2 -18
-18 -27 -10 -106 -44 -174 -75 -152 -70 -223 -88 -296 -76 -30 5 -109 11 -177
15 -155 8 -245 29 -289 68 -19 16 -57 44 -85 62 -73 47 -75 55 -14 55 29 0 88
9 133 21 72 18 100 20 242 15 88 -4 187 -2 220 3 33 4 65 9 71 10 6 0 42 -10
80 -23z m-1131 -727 c13 -20 36 -50 51 -65 14 -16 43 -52 64 -79 47 -63 138
-148 210 -193 46 -30 51 -36 35 -42 -19 -7 -30 -1 -92 50 -22 18 -43 11 -43
-15 0 -15 6 -25 14 -25 19 0 56 -73 49 -99 -3 -12 -1 -21 5 -21 5 0 18 -12 28
-27 17 -27 17 -28 -2 -13 -64 50 -254 259 -309 341 -83 123 -186 331 -185 372
1 15 143 -135 175 -184z m1805 121 c0 -11 3 -20 8 -20 4 0 16 -20 27 -44 11
-24 23 -42 27 -40 15 9 8 -14 -7 -26 -12 -10 -13 -15 -4 -20 8 -5 4 -20 -13
-51 -31 -55 -54 -65 -32 -13 9 20 13 45 11 56 -3 10 -1 21 4 24 5 3 9 15 9 26
0 12 -3 18 -7 15 -3 -4 -12 1 -19 11 -8 10 -13 12 -14 5 0 -7 -4 -13 -8 -13
-5 0 -9 25 -10 55 -1 42 2 55 13 55 8 0 15 -9 15 -20z m-38 -151 c-3 -32 -1
-49 7 -49 20 0 12 -28 -10 -33 -16 -4 -20 -11 -16 -27 7 -26 -30 -50 -39 -25
-6 14 -8 13 -21 -5 -16 -23 -33 -26 -33 -6 0 8 -7 17 -16 20 -20 8 -9 26 17
26 12 0 19 7 19 20 0 11 7 20 15 20 8 0 14 3 13 8 -1 4 10 34 26 66 32 67 46
62 38 -15z m-2062 21 c0 -5 -6 -10 -14 -10 -8 0 -18 5 -21 10 -3 6 3 10 14 10
12 0 21 -4 21 -10z m2097 -6 c3 -8 1 -20 -6 -27 -8 -8 -11 -8 -11 0 0 6 -3 18
-6 27 -3 9 -1 16 5 16 7 0 14 -7 18 -16z m122 -82 c14 -20 38 -51 55 -69 25
-28 27 -33 13 -39 -10 -3 -18 -14 -18 -23 -1 -9 -4 -2 -8 14 -4 20 -12 29 -23
27 -9 -1 -18 4 -22 13 -9 25 -31 17 -45 -17 -7 -18 -15 -27 -18 -20 -7 19 -23
14 -23 -7 0 -20 -46 -56 -54 -42 -7 11 12 79 24 86 5 3 19 1 29 -5 18 -9 21
-6 29 22 5 18 14 32 21 31 17 -4 13 18 -6 32 -17 12 -11 35 10 35 7 0 23 -17
36 -38z m-2434 18 c3 -5 2 -10 -4 -10 -5 0 -13 5 -16 10 -3 6 -2 10 4 10 5 0
13 -4 16 -10z m2778 -16 c-4 -11 2 -23 18 -35 l24 -19 -22 0 c-24 0 -31 -14
-13 -25 6 -4 18 -1 27 7 14 11 15 10 9 -9 -6 -18 -1 -26 26 -43 18 -11 44 -20
58 -20 14 0 32 -10 41 -23 l17 -23 -64 16 c-35 9 -72 24 -82 33 -10 9 -26 17
-35 17 -9 0 -17 7 -17 15 0 8 -4 15 -10 15 -5 0 -10 9 -10 20 0 11 -4 20 -10
20 -15 0 -12 18 8 45 19 28 45 34 35 9z m-2794 -11 c3 -2 -1 -9 -7 -15 -10
-10 -17 -10 -32 0 -22 13 -57 16 -62 5 -1 -5 -25 -19 -53 -32 -27 -13 -45 -26
-38 -28 6 -2 24 4 38 13 34 22 121 28 104 8 -6 -8 -17 -14 -23 -14 -36 0 -92
-26 -121 -56 -18 -19 -39 -34 -47 -34 -10 0 -9 -3 2 -10 13 -8 12 -10 -2 -10
-10 0 -18 7 -18 16 0 8 -5 12 -11 8 -6 -3 -8 -17 -5 -30 7 -26 -8 -34 -18 -9
-8 21 -26 18 -61 -10 -24 -20 -26 -25 -12 -25 13 0 17 -6 15 -22 -2 -17 -11
-23 -36 -25 -37 -3 -102 -34 -121 -57 -22 -27 -121 -19 -121 9 0 9 12 11 43 8
32 -4 48 0 67 15 22 18 23 22 10 38 -14 16 -13 17 13 10 21 -5 27 -3 27 10 0
12 -7 15 -25 12 -30 -6 -32 3 -5 20 25 15 26 32 3 32 -15 0 -13 4 7 20 17 13
26 15 29 7 10 -28 38 -42 80 -38 11 1 11 5 -2 19 -22 24 -21 32 3 32 11 0 19
-3 19 -7 -3 -21 2 -33 16 -33 8 0 15 6 15 14 0 8 9 17 19 21 11 3 44 29 73 56
85 81 86 82 114 85 14 2 29 5 32 8 5 6 83 -3 91 -11z m81 -36 c18 -33 5 -49
-16 -18 -9 12 -25 30 -36 41 -21 19 -21 19 8 11 16 -4 36 -19 44 -34z m2305
24 c3 -5 1 -12 -5 -16 -5 -3 -10 1 -10 9 0 18 6 21 15 7z m-2617 -42 c-12 -16
-24 -25 -26 -19 -4 12 26 50 40 50 5 0 -2 -14 -14 -31z m219 -5 c-3 -3 -12 -4
-19 -1 -8 3 -5 6 6 6 11 1 17 -2 13 -5z m-317 -24 c0 -5 -7 -10 -15 -10 -8 0
-15 5 -15 10 0 6 7 10 15 10 8 0 15 -4 15 -10z m2487 -5 c9 -25 -4 -29 -17 -6
-7 15 -7 21 0 21 6 0 13 -7 17 -15z m-2509 -22 c2 -8 -6 -13 -22 -13 -19 0
-24 4 -19 15 6 18 34 16 41 -2z m2820 -24 c4 -24 3 -24 -12 -4 -19 24 -20 38
-3 33 6 -3 13 -15 15 -29z m-2428 -42 c21 -3 19 -5 -8 -6 -43 -1 -73 15 -65
35 5 13 9 12 27 -5 11 -10 32 -21 46 -24z m-171 19 c10 -12 8 -13 -8 -9 -12 3
-21 9 -21 14 0 14 16 11 29 -5z m2581 -11 c12 -15 10 -18 -31 -64 -26 -29 -30
-59 -8 -66 20 -7 23 -14 13 -39 -9 -23 -27 -20 -19 3 7 23 -14 39 -26 20 -8
-13 -4 -58 7 -68 2 -3 10 1 16 7 17 17 33 15 18 -3 -7 -8 -18 -15 -25 -15 -8
0 -15 -6 -18 -12 -6 -17 -29 41 -27 67 0 11 2 39 3 63 0 24 6 42 12 42 7 0 17
11 23 25 6 14 16 25 22 25 5 0 10 7 10 15 0 19 14 19 30 0z m730 11 c0 -3 -4
-8 -10 -11 -5 -3 -10 -1 -10 4 0 6 5 11 10 11 6 0 10 -2 10 -4z m-1103 -19 c4
-8 16 -17 26 -20 15 -6 17 -14 12 -51 -7 -45 9 -72 26 -45 7 11 11 11 21 1 10
-10 10 -14 -2 -22 -8 -5 -18 -6 -22 -4 -4 3 -8 3 -8 0 0 -2 -3 -12 -6 -20 -4
-12 -2 -15 9 -10 10 3 18 -2 22 -15 12 -38 -11 -53 -39 -26 -19 20 -45 9 -39
-16 5 -17 3 -18 -21 -9 -40 15 -66 13 -60 -5 3 -8 14 -17 25 -20 27 -9 15 -23
-26 -31 -18 -3 -42 -15 -52 -26 -18 -20 -17 -20 27 -16 39 3 46 0 57 -22 l13
-25 6 23 c9 32 24 27 24 -8 0 -20 5 -30 15 -30 16 0 19 19 15 85 -2 39 11 42
23 5 2 -8 3 -3 1 13 -4 33 25 67 58 67 l21 0 -21 -23 c-24 -25 -30 -46 -9 -30
18 14 87 16 87 2 0 -7 8 -17 17 -24 15 -11 15 -15 -8 -43 -29 -37 -70 -56
-104 -50 -14 3 -25 1 -25 -6 0 -6 -4 -5 -9 3 -7 11 -12 3 -22 -27 -9 -30 -21
-46 -43 -57 -19 -10 -32 -12 -34 -6 -2 7 -11 6 -23 -2 -47 -29 -79 45 -38 89
12 13 19 27 15 31 -4 5 -17 -3 -28 -16 -38 -48 -75 14 -41 68 10 15 11 21 3
16 -10 -6 -11 1 -6 31 7 42 37 74 67 74 22 0 34 16 17 24 -9 4 -10 8 -2 11 13
6 6 55 -7 55 -5 0 -9 -10 -9 -22 0 -22 -26 -58 -42 -58 -4 0 -8 14 -8 32 0 33
24 68 46 68 7 0 16 10 20 23 9 29 46 76 61 76 7 1 16 -5 20 -12z m-2287 -32
c-7 -8 -16 -15 -21 -15 -5 0 -1 9 8 20 9 11 19 17 21 15 3 -3 -1 -11 -8 -20z
m2410 -24 c0 -20 -19 -41 -36 -41 -20 0 -25 43 -7 62 18 20 43 8 43 -21z
m1080 6 c0 -5 -4 -5 -10 -2 -5 3 -10 14 -10 23 0 15 2 15 10 2 5 -8 10 -19 10
-23z m-1012 -24 c2 -24 -2 -34 -18 -43 -11 -6 -25 -8 -30 -5 -6 3 -7 -1 -4 -9
4 -11 0 -16 -10 -16 -9 0 -16 8 -16 20 0 11 4 20 9 20 5 0 12 16 15 36 6 29
11 35 29 32 17 -2 23 -11 25 -35z m1057 27 c-3 -5 -12 -10 -18 -10 -7 0 -6 4
3 10 19 12 23 12 15 0z m-3418 -20 c-3 -11 -1 -22 3 -25 12 -7 24 -91 16 -110
-9 -26 -36 -5 -36 28 l0 31 -16 -23 c-10 -14 -13 -26 -7 -30 5 -3 12 -14 16
-24 6 -15 2 -18 -16 -16 -12 1 -30 -1 -39 -5 -9 -4 -23 -4 -32 1 -12 7 -12 11
-1 27 12 15 17 17 29 7 19 -16 27 6 13 36 -8 18 -6 27 6 41 10 10 17 24 17 30
0 12 35 52 46 52 4 0 4 -9 1 -20z m2544 -8 c-9 -18 -8 -21 12 -25 16 -3 13 -5
-11 -6 l-33 -1 16 31 c9 17 19 29 22 26 2 -3 0 -14 -6 -25z m397 22 c13 -4 22
-14 22 -25 0 -22 0 -22 -34 -9 -14 5 -26 16 -26 25 0 17 4 18 38 9z m-54 -19
c-4 -8 -9 -15 -13 -15 -4 0 -8 7 -8 15 0 8 6 15 13 15 8 0 11 -6 8 -15z m581
-14 c-3 -6 -11 -11 -17 -11 -6 0 -6 6 2 15 14 17 26 13 15 -4z m-3047 -24 c12
-11 22 -26 22 -34 0 -19 53 -71 67 -66 20 7 53 -16 53 -38 0 -26 -26 -35 -56
-18 -22 11 -27 10 -47 -9 l-21 -22 22 0 c39 0 62 -18 62 -50 0 -42 13 -44 35
-5 21 39 45 51 75 35 23 -13 27 -50 5 -50 -9 0 -15 7 -13 17 2 10 -4 19 -14
21 -20 4 -51 -49 -46 -79 3 -22 22 -27 24 -6 0 6 2 23 2 35 2 27 27 25 27 -2
0 -22 23 -36 58 -36 33 0 32 -19 0 -31 -15 -5 -27 -2 -41 12 -12 10 -24 15
-27 10 -3 -5 -1 -12 5 -16 6 -4 5 -13 -3 -27 -9 -16 -9 -22 1 -25 6 -3 12 -9
12 -14 0 -14 50 -59 66 -59 7 0 35 5 63 11 36 8 50 16 55 31 7 27 -3 43 -17
29 -16 -16 -27 -13 -27 8 0 36 24 44 69 20 23 -11 41 -25 41 -29 0 -15 -32
-85 -48 -102 -19 -23 -9 -23 39 -1 37 17 44 30 40 74 -1 8 7 23 17 33 19 16
20 16 25 -9 3 -17 0 -28 -9 -32 -21 -8 -17 -33 6 -33 27 0 25 -18 -2 -30 -13
-5 -17 -9 -9 -9 8 -1 11 -8 8 -20 -2 -11 3 -25 15 -35 15 -13 16 -20 8 -37
-18 -33 -39 -34 -70 -4 -25 24 -30 26 -36 12 -3 -10 -4 -24 -1 -32 7 -17 -9
-30 -18 -15 -3 5 -15 10 -26 10 -10 0 -28 9 -40 21 -18 18 -22 19 -37 6 -15
-13 -20 -14 -36 -1 -23 16 -60 19 -51 4 4 -6 2 -16 -3 -23 -5 -7 -12 -21 -14
-32 -3 -12 -8 -1 -12 27 -5 29 -12 45 -18 41 -6 -3 -19 5 -29 18 -16 21 -75
37 -63 17 18 -29 -96 -109 -123 -86 -7 6 -13 16 -13 22 0 6 -9 17 -20 24 -11
7 -20 17 -20 23 0 6 -9 22 -19 35 -18 23 -24 61 -22 146 0 15 -4 30 -10 34 -6
4 -4 13 7 25 9 10 21 16 25 13 5 -3 9 7 9 22 0 15 7 35 15 44 8 9 16 31 18 48
4 39 15 51 27 32 5 -8 12 -11 17 -6 4 4 1 11 -8 16 -13 8 -16 30 -10 60 1 3 8
-4 16 -14 13 -17 15 -18 21 -2 10 26 -16 76 -42 82 -17 4 -24 13 -24 31 0 21
3 23 23 18 12 -4 32 -17 45 -28z m2812 -5 c0 -8 -1 -13 -3 -11 -1 2 -9 12 -16
22 -12 15 -12 17 3 11 9 -3 16 -13 16 -22z m-105 8 c3 -5 -1 -10 -9 -10 -9 0
-16 5 -16 10 0 6 4 10 9 10 6 0 13 -4 16 -10z m-481 -15 c-4 -9 -14 -14 -22
-13 -9 2 -17 -1 -17 -7 0 -17 -33 -57 -39 -47 -3 5 2 25 12 45 13 30 22 37 44
37 20 0 26 -4 22 -15z m-272 -7 c-7 -7 -12 -26 -12 -44 0 -33 -23 -63 -35 -44
-3 5 -18 10 -31 10 -16 0 -24 5 -21 13 2 6 11 11 21 9 9 -2 16 2 16 9 0 16 42
59 60 59 11 0 11 -3 2 -12z m1175 5 c-4 -3 -2 -12 5 -20 12 -15 5 -28 -11 -18
-15 8 -14 45 1 45 6 0 8 -3 5 -7z m-390 -25 c-3 -8 -6 -5 -6 6 -1 11 2 17 5
13 3 -3 4 -12 1 -19z m-3342 -8 c5 -15 12 -19 25 -15 13 4 22 -1 29 -14 13
-24 0 -35 -29 -26 -11 4 -20 3 -20 -2 0 -16 16 -29 49 -43 l35 -14 -30 -12
c-50 -22 -91 5 -106 70 -12 56 31 107 47 56z m95 10 c0 -5 -8 -10 -17 -10 -15
0 -16 2 -3 10 19 12 20 12 20 0z m3306 -7 c17 -23 17 -33 0 -33 -7 0 -16 11
-18 25 -6 29 0 32 18 8z m-2522 -19 c23 -23 19 -40 -4 -19 -11 10 -20 22 -20
27 0 12 7 10 24 -8z m2054 2 c2 -3 1 -10 -3 -16 -5 -8 -11 -8 -20 0 -9 7 -16
6 -25 -5 -11 -14 -50 -22 -50 -10 0 3 8 14 18 25 12 14 26 18 46 15 16 -3 31
-7 34 -9z m557 4 c-3 -5 -18 -10 -33 -10 -21 0 -24 2 -12 10 20 13 53 13 45 0z
m-1315 -15 c-7 -8 -16 -12 -21 -9 -13 8 -1 24 18 24 13 0 13 -3 3 -15z m1129
-4 c9 -6 10 -11 2 -15 -13 -8 -31 1 -31 15 0 11 11 11 29 0z m-479 -12 c0 -6
-6 -17 -14 -24 -12 -12 -14 -11 -12 10 1 24 26 37 26 14z m1099 -15 c14 -12
-19 -1 -35 12 -18 14 -18 14 6 3 14 -6 27 -13 29 -15z m-479 1 c0 -9 7 -18 15
-21 8 -4 15 -10 15 -14 0 -5 -11 -3 -24 3 -28 13 -42 47 -20 47 8 0 14 -7 14
-15z m-3826 -4 c4 -5 0 -12 -6 -14 -7 -3 -3 -6 9 -6 27 -1 42 -21 16 -21 -27
0 -58 25 -49 38 9 14 23 15 30 3z m1325 -22 c27 -29 28 -31 12 -64 -19 -41
-44 -45 -67 -10 -16 25 -16 27 11 55 16 17 23 30 17 30 -7 0 -12 5 -12 10 0
17 10 11 39 -21z m1218 6 c1 0 4 -12 8 -28 5 -17 3 -27 -4 -27 -6 0 -11 9 -11
20 0 11 -6 20 -14 20 -18 0 -29 17 -21 30 5 8 12 7 23 -2 10 -7 18 -12 19 -13z
m600 -17 c-3 -7 -5 -2 -5 12 0 14 2 19 5 13 2 -7 2 -19 0 -25z m873 21 c0 -15
-26 -39 -34 -31 -4 3 -11 1 -15 -6 -10 -17 -83 -21 -88 -4 -4 11 33 18 72 13
6 0 17 8 25 19 15 21 40 27 40 9z m-3940 -24 c-7 -9 -15 -13 -18 -10 -3 2 1
11 8 20 7 9 15 13 18 10 3 -2 -1 -11 -8 -20z m3005 15 c-3 -5 -14 -10 -23 -10
-15 0 -15 2 -2 10 20 13 33 13 25 0z m355 0 c12 -7 12 -12 -4 -29 -11 -12 -23
-21 -28 -21 -15 0 -21 30 -8 45 14 17 20 18 40 5z m-2827 -32 c2 -7 -3 -18
-12 -25 -14 -11 -14 -12 2 -13 23 0 22 -15 -5 -50 -24 -33 -44 -40 -33 -12 4
9 8 31 9 47 1 17 6 36 10 44 6 9 5 12 -5 9 -8 -3 -18 -19 -23 -37 -10 -35 -43
-40 -38 -6 2 17 -1 16 -23 -8 -21 -24 -24 -34 -19 -69 6 -32 4 -40 -7 -36 -7
2 -16 15 -20 29 l-7 24 -1 -25 c-1 -14 -5 -30 -9 -36 -7 -12 -72 -30 -72 -21
0 3 14 19 30 35 28 28 40 70 23 73 -35 7 -80 6 -95 -2 -25 -13 -12 -33 16 -24
63 19 81 10 53 -29 -11 -15 -21 -17 -55 -11 -25 4 -42 12 -42 20 0 7 -12 23
-27 34 -16 11 -22 21 -15 21 7 0 34 9 59 21 45 20 113 20 113 0 0 -17 39 -5
57 17 11 15 31 25 51 27 18 1 35 5 39 9 11 11 41 7 46 -6z m2433 -3 c9 -8 12
-19 9 -25 -3 -5 -1 -10 4 -10 6 0 11 -11 11 -25 0 -33 24 -32 39 1 8 18 8 30
1 39 -8 9 -5 14 10 18 28 7 33 -7 15 -42 -8 -17 -15 -40 -15 -52 0 -18 -5 -21
-30 -17 -30 4 -40 -5 -20 -17 6 -4 8 -15 5 -26 -7 -22 -2 -24 24 -7 10 6 26 8
37 3 17 -7 17 -8 -7 -16 -14 -5 -37 -29 -52 -52 -19 -30 -39 -47 -65 -56 -20
-8 -42 -16 -49 -18 -9 -4 -9 1 0 21 7 14 20 26 29 26 19 0 58 45 58 68 0 10
-7 13 -20 9 -18 -4 -20 -2 -14 16 4 12 11 24 15 25 5 2 9 8 9 13 0 4 -8 5 -17
2 -13 -5 -15 -3 -7 13 4 10 8 43 7 72 -3 56 0 60 23 37z m454 8 c-1 -19 -30
-45 -45 -40 -22 9 -19 26 8 37 28 11 37 12 37 3z m-3170 -7 c0 -3 -4 -8 -10
-11 -5 -3 -10 -1 -10 4 0 6 5 11 10 11 6 0 10 -2 10 -4z m1227 -11 c8 -9 13
-18 11 -21 -3 -2 -13 5 -23 16 -21 23 -11 27 12 5z m2838 5 c3 -5 -1 -10 -9
-10 -9 0 -16 5 -16 10 0 6 4 10 9 10 6 0 13 -4 16 -10z m-4585 -11 c0 -10 -49
-21 -60 -14 -20 12 -9 20 25 20 19 0 35 -3 35 -6z m2714 -11 c22 -31 20 -38
-10 -38 -69 0 -90 56 -22 59 9 1 24 -9 32 -21z m656 12 c0 -5 -4 -10 -10 -10
-5 0 -10 5 -10 10 0 6 5 10 10 10 6 0 10 -4 10 -10z m1256 -41 c10 -17 -14
-35 -28 -21 -9 9 -9 12 1 12 7 0 9 5 6 10 -3 6 -2 10 4 10 5 0 13 -5 17 -11z
m-2026 -9 c0 -5 -4 -10 -10 -10 -5 0 -10 5 -10 10 0 6 5 10 10 10 6 0 10 -4
10 -10z m-1883 -32 c-3 -8 -6 -5 -6 6 -1 11 2 17 5 13 3 -3 4 -12 1 -19z
m2024 -9 c8 -16 6 -19 -13 -21 -13 0 -32 0 -42 1 -18 1 -35 -14 -36 -31 0 -4
28 -5 62 -1 l62 6 -22 -23 c-35 -38 -26 -56 11 -22 19 16 20 16 15 -5 -3 -12
-1 -24 6 -26 8 -3 8 -8 -1 -18 -7 -9 -9 -20 -3 -29 10 -16 15 -8 22 35 4 17 7
15 26 -15 12 -19 22 -29 22 -22 0 6 4 12 9 12 15 0 43 -32 38 -44 -3 -6 2 -17
9 -24 11 -10 15 -8 24 8 14 26 35 25 54 -2 15 -20 13 -43 -3 -34 -4 3 -6 -8
-3 -23 5 -37 -13 -71 -38 -71 -15 0 -20 7 -20 29 0 20 -6 30 -20 34 -12 3 -20
14 -20 26 0 12 -5 21 -11 21 -6 0 -18 8 -27 17 -16 16 -17 15 -20 -18 -4 -54
-10 -63 -27 -49 -12 10 -15 9 -15 -4 0 -15 -36 -36 -61 -36 -15 0 -10 33 11
67 14 24 15 31 5 26 -17 -6 -20 23 -6 46 6 9 2 25 -11 47 -18 31 -23 33 -64
29 -24 -2 -53 -6 -63 -10 -23 -7 -30 9 -24 53 4 26 10 32 30 32 21 0 23 2 13
15 -20 24 -6 42 28 37 16 -2 32 0 36 6 9 15 56 2 67 -19z m639 27 c0 -3 -4 -8
-10 -11 -5 -3 -10 -1 -10 4 0 6 5 11 10 11 6 0 10 -2 10 -4z m-260 -51 c0 -8
-4 -15 -9 -15 -13 0 -22 16 -14 24 11 11 23 6 23 -9z m-2740 -26 c0 -5 -7 -9
-15 -9 -8 0 -15 7 -15 15 0 9 6 12 15 9 8 -4 15 -10 15 -15z m660 11 c0 -5 -2
-10 -4 -10 -3 0 -8 5 -11 10 -3 6 -1 10 4 10 6 0 11 -4 11 -10z m2033 -13 c21
-18 29 -35 34 -74 3 -29 3 -59 -1 -69 -6 -15 -8 -15 -24 0 -13 11 -21 13 -29
5 -7 -7 -15 -6 -26 5 -11 12 -17 13 -20 3 -3 -8 -10 -7 -26 7 -19 17 -21 17
-21 3 0 -10 -4 -17 -9 -17 -20 0 -41 13 -41 25 0 7 -6 15 -12 18 -7 2 -10 8
-6 12 4 4 20 3 37 -3 26 -9 30 -8 35 13 4 17 11 22 26 18 11 -3 20 -9 20 -14
0 -5 11 -9 25 -9 28 0 30 3 14 28 -8 13 -21 16 -52 13 -39 -3 -41 -3 -27 15
39 50 62 54 103 21z m-2203 -32 c0 -8 -4 -15 -9 -15 -13 0 -22 16 -14 24 11
11 23 6 23 -9z m2632 -13 c7 -11 19 -21 26 -23 16 -5 -24 -69 -53 -84 -60 -31
-55 -51 7 -29 45 16 57 12 38 -11 -10 -12 -10 -15 3 -15 8 0 20 -7 27 -15 10
-12 10 -15 -4 -15 -19 0 -20 -4 -4 -30 10 -15 10 -29 0 -67 -19 -72 -34 -78
-26 -12 5 43 2 63 -11 90 -21 40 -32 49 -62 49 -17 0 -23 -6 -24 -22 -1 -17
-2 -19 -6 -5 -2 9 -14 17 -25 17 -18 0 -18 3 9 34 15 19 33 33 39 31 7 -2 22
7 35 21 25 27 30 81 8 95 -9 5 -10 9 -2 9 6 0 18 -8 25 -18z m-1022 -2 c0 -5
-4 -10 -9 -10 -5 0 -18 -3 -28 -6 -16 -5 -16 -4 1 10 23 18 36 20 36 6z m2163
-14 c4 -10 1 -13 -9 -9 -7 3 -14 9 -14 14 0 14 17 10 23 -5z m-2900 -2 c8 -8
-3 -34 -14 -34 -5 0 -9 9 -9 20 0 19 11 26 23 14z m72 -35 c43 -38 44 -50 5
-42 -29 5 -30 5 -24 -26 7 -35 -8 -61 -37 -61 -11 0 -21 9 -24 23 -9 42 6 80
30 70 17 -6 21 22 5 32 -13 8 -13 35 0 35 5 0 25 -14 45 -31z m553 -10 c15
-13 29 -18 43 -14 29 10 109 -16 109 -35 0 -8 7 -24 15 -34 8 -10 12 -23 9
-27 -3 -5 0 -9 7 -9 8 0 10 15 6 51 -7 54 7 64 29 20 12 -23 12 -23 19 7 8 38
30 59 38 38 4 -9 1 -18 -5 -22 -7 -4 -5 -10 5 -16 10 -5 14 -15 10 -25 -5 -13
-2 -15 11 -10 10 4 22 4 28 1 16 -10 -23 -44 -51 -44 l-25 0 22 -16 c27 -19
31 -50 5 -39 -47 20 -73 17 -115 -14 -42 -31 -68 -39 -68 -21 0 6 5 10 10 10
6 0 20 9 32 20 19 17 20 23 8 44 -7 14 -10 32 -7 41 5 13 3 14 -12 5 -13 -6
-17 -17 -14 -30 4 -14 0 -20 -11 -20 -9 0 -16 4 -16 10 0 5 -7 7 -15 4 -18 -7
-47 14 -39 28 3 5 -2 15 -12 22 -16 12 -12 14 35 21 29 4 50 9 47 12 -3 3 -41
0 -85 -8 -45 -7 -84 -10 -87 -6 -7 7 34 77 45 77 4 0 17 -9 29 -21z m1212 -18
c0 -22 30 -37 41 -20 4 7 15 9 25 5 18 -7 18 -8 -1 -18 -11 -6 -26 -18 -32
-26 -11 -13 -13 -14 -13 -1 0 8 -9 21 -20 29 -21 15 -28 50 -10 50 6 0 10 -9
10 -19z m-220 -10 c0 -12 -29 -41 -40 -41 -13 0 -40 -55 -40 -81 l0 -22 20 23
c11 13 22 21 25 19 9 -10 -8 -49 -21 -49 -16 0 -19 -27 -3 -32 7 -2 7 -12 0
-31 -8 -21 -17 -28 -34 -25 -14 2 -21 9 -21 21 2 21 -8 21 -46 2 -32 -17 -36
-25 -19 -42 14 -14 2 -36 -16 -29 -19 7 -31 -12 -39 -63 -4 -29 -15 -50 -31
-63 -14 -11 -22 -24 -19 -30 4 -6 2 -8 -4 -4 -5 3 -24 -5 -40 -19 -19 -16 -33
-22 -37 -15 -7 11 -78 8 -107 -5 -14 -5 -18 -2 -18 14 0 21 -1 21 -31 6 -36
-19 -48 -12 -31 16 7 11 10 24 7 29 -11 18 -61 10 -96 -13 -29 -20 -34 -29
-33 -60 1 -42 -13 -48 -41 -17 -15 17 -16 24 -6 46 6 14 9 29 6 34 -8 13 24
40 47 40 16 0 18 3 9 14 -16 19 3 30 28 16 27 -14 31 -13 31 7 0 13 7 10 30
-12 33 -32 42 -16 14 23 -11 16 -14 34 -10 56 5 28 12 35 37 40 54 10 69 7 69
-14 0 -11 -7 -20 -15 -20 -8 0 -15 5 -15 10 0 16 -18 11 -38 -10 -21 -23 -19
-80 3 -80 7 0 23 -20 35 -45 21 -44 56 -67 70 -45 4 6 17 9 31 5 31 -7 61 11
40 24 -11 7 -5 13 24 25 52 22 39 30 -16 11 -32 -12 -45 -13 -48 -4 -2 8 -6 7
-12 -2 -4 -7 -11 -11 -14 -8 -8 9 6 40 15 34 4 -3 13 2 20 10 7 8 19 15 26 15
8 0 14 4 14 9 0 5 16 16 35 25 19 9 39 26 45 36 6 11 17 20 24 20 8 0 19 15
27 33 16 40 26 47 68 47 32 0 33 1 18 18 -24 27 -22 38 21 88 45 55 102 91
102 65z m-1210 -31 c0 -5 -13 -10 -29 -10 -16 0 -34 -7 -41 -16 -14 -16 -59
-16 -63 1 -2 10 70 33 111 34 12 1 22 -3 22 -9z m130 -10 c0 -23 -22 -35 -46
-26 -14 5 -12 9 7 26 31 25 39 25 39 0z m747 3 c-9 -9 -19 -14 -23 -11 -10 10
6 28 24 28 15 0 15 -1 -1 -17z m534 -26 c-15 -15 -21 -5 -14 22 5 21 7 21 16
6 6 -11 5 -21 -2 -28z m-3511 13 c0 -5 -7 -10 -16 -10 -8 0 -12 5 -9 10 3 6
10 10 16 10 5 0 9 -4 9 -10z m744 -24 c-21 -15 -30 -14 -19 3 3 6 14 11 23 11
13 0 13 -2 -4 -14z m1206 -6 c0 -5 -9 -10 -20 -10 -11 0 -20 5 -20 10 0 6 9
10 20 10 11 0 20 -4 20 -10z m1174 -5 c-4 -9 0 -15 10 -15 9 0 16 -4 16 -10 0
-5 -9 -10 -20 -10 -11 0 -20 4 -20 9 0 5 -3 16 -6 25 -4 10 -1 16 10 16 10 0
13 -6 10 -15z m418 -42 c-5 -21 -7 -75 -5 -119 3 -62 1 -76 -9 -66 -13 13 -16
211 -3 232 15 24 26 -7 17 -47z m-1667 37 c-3 -5 -10 -10 -16 -10 -5 0 -9 5
-9 10 0 6 7 10 16 10 8 0 12 -4 9 -10z m325 -24 c-6 -6 -15 -4 -25 4 -23 19
-18 29 9 17 15 -7 21 -16 16 -21z m-78 9 c2 -16 -62 -48 -95 -47 -16 0 -48 -8
-69 -19 -21 -11 -38 -15 -38 -10 0 6 35 28 78 50 73 38 121 48 124 26z m688 5
c0 -5 -7 -10 -16 -10 -8 0 -12 5 -9 10 3 6 10 10 16 10 5 0 9 -4 9 -10z m500
0 c0 -5 -2 -10 -4 -10 -3 0 -8 5 -11 10 -3 6 -1 10 4 10 6 0 11 -4 11 -10z
m-2403 -32 c-3 -7 -5 -2 -5 12 0 14 2 19 5 13 2 -7 2 -19 0 -25z m142 -14 c6
4 11 3 11 -3 0 -5 -5 -13 -10 -16 -6 -4 -4 -12 5 -21 8 -9 18 -27 22 -42 9
-36 24 -50 47 -44 10 3 24 -2 30 -10 6 -8 22 -20 34 -27 18 -9 23 -19 20 -36
-3 -13 -2 -29 2 -36 10 -15 34 124 27 157 -2 13 -1 24 4 24 15 0 38 -62 33
-88 -7 -32 12 -86 26 -77 6 4 9 14 8 23 -2 12 5 18 28 20 40 4 69 -34 55 -70
-12 -31 -89 -100 -102 -93 -5 4 -9 3 -8 -2 4 -21 -2 -33 -16 -33 -8 0 -15 -9
-15 -20 0 -10 -9 -24 -20 -30 -17 -9 -20 -8 -20 10 0 11 7 23 15 26 10 4 13
13 9 26 -3 10 -2 24 3 31 12 17 10 70 -3 74 -12 4 -23 -66 -33 -212 -1 -6 -13
-18 -28 -28 l-28 -17 28 6 c35 8 34 0 -10 -86 -29 -58 -38 -69 -45 -56 -5 9
-23 30 -39 47 -16 16 -29 33 -29 38 0 4 -9 18 -20 31 -11 13 -20 33 -20 46 0
16 -4 22 -14 18 -8 -3 -17 -1 -21 5 -3 7 2 11 14 11 24 0 30 17 19 55 -12 44
-10 75 5 75 24 0 35 42 26 100 -4 30 -8 63 -8 72 -2 30 -31 8 -31 -23 0 -19 5
-29 15 -29 8 0 15 -7 15 -16 0 -8 -4 -13 -8 -10 -4 2 -15 -16 -23 -42 l-14
-47 -3 38 c-4 42 -4 43 -36 21 -26 -16 -43 -5 -32 21 4 11 -2 15 -24 15 -19 0
-30 5 -30 14 0 7 -10 17 -22 20 -22 7 -22 7 -3 15 14 6 26 3 41 -10 27 -25 64
-25 64 0 0 10 7 22 16 25 12 5 14 10 5 20 -6 7 -9 15 -6 18 3 3 -1 11 -10 18
-8 7 -15 23 -15 36 0 12 -4 25 -9 28 -10 7 -3 46 9 46 4 0 11 -11 14 -25 4
-14 12 -25 20 -25 8 0 14 -11 14 -25 0 -35 20 -59 38 -44 11 9 15 7 20 -6 7
-16 8 -16 17 1 8 14 4 22 -21 43 -30 26 -57 94 -45 114 3 6 16 -2 29 -18 12
-15 27 -24 33 -21z m2381 37 c0 -12 -20 -25 -27 -18 -7 7 6 27 18 27 5 0 9 -4
9 -9z m-2640 -15 c0 -8 -11 -28 -25 -43 l-25 -28 18 42 c17 43 32 56 32 29z
m1654 -9 c-6 -16 -60 -21 -69 -6 -3 4 6 6 20 5 14 -2 30 3 36 11 14 17 22 11
13 -10z m356 -17 c0 -5 -5 -10 -11 -10 -5 0 -7 5 -4 10 3 6 8 10 11 10 2 0 4
-4 4 -10z m-230 -25 c19 -21 23 -36 25 -109 3 -69 0 -90 -14 -108 -10 -13 -20
-31 -24 -40 -3 -10 -10 -18 -16 -18 -17 0 -18 37 -1 60 10 13 16 30 13 37 -3
7 0 13 6 13 6 0 11 4 11 9 0 4 -10 8 -22 7 -16 -1 -22 -7 -20 -19 2 -11 -4
-17 -17 -17 -28 0 -36 18 -16 40 13 14 25 17 49 13 28 -6 30 -5 18 10 -8 9
-20 13 -28 10 -8 -3 -14 1 -14 11 0 9 0 19 -1 23 0 4 4 9 10 11 6 2 11 -3 11
-12 0 -9 6 -16 14 -16 8 0 17 -6 19 -12 3 -8 6 -7 6 4 2 33 -19 69 -46 79 -24
9 -31 7 -50 -16 -13 -14 -23 -21 -23 -14 0 9 -3 9 -14 0 -10 -8 -16 -9 -21 -1
-9 15 4 32 23 28 10 -2 24 8 34 24 22 35 57 36 88 3z m508 5 c5 -13 3 -13 -11
-1 -20 16 -47 8 -47 -14 0 -8 -4 -15 -10 -15 -14 0 -12 24 2 38 17 17 60 11
66 -8z m-2195 4 c3 -3 -3 -14 -14 -25 -13 -13 -19 -33 -19 -64 0 -43 -1 -45
-20 -35 -20 11 -28 50 -10 50 6 0 10 8 10 18 0 19 27 62 39 62 4 0 10 -3 14
-6z m305 -18 c-10 -7 -18 -19 -18 -25 0 -19 -26 -41 -49 -41 -12 0 -21 6 -21
15 0 8 -4 15 -10 15 -5 0 -10 8 -10 18 1 15 2 15 16 -3 15 -20 15 -20 33 1 16
20 37 30 66 33 6 0 2 -6 -7 -13z m-1588 -6 c0 -6 -7 -13 -15 -16 -8 -4 -12
-10 -9 -15 3 -5 -2 -9 -10 -9 -16 0 -22 31 -9 43 10 11 43 8 43 -3z m40 -15
c0 -8 -9 -15 -20 -15 -13 0 -18 5 -14 15 4 8 12 15 20 15 8 0 14 -7 14 -15z
m60 5 c0 -5 -5 -10 -11 -10 -5 0 -7 5 -4 10 3 6 8 10 11 10 2 0 4 -4 4 -10z
m3355 -10 c-3 -5 -11 -10 -16 -10 -6 0 -7 5 -4 10 3 6 11 10 16 10 6 0 7 -4 4
-10z m-1209 -16 c-3 -9 -6 -20 -6 -25 0 -5 -9 -9 -20 -9 -22 0 -26 20 -8 38
18 18 41 15 34 -4z m655 -17 c-16 -16 -26 0 -10 19 9 11 15 12 17 4 2 -6 -1
-17 -7 -23z m205 -4 c8 -29 1 -38 -22 -29 -13 5 -15 9 -6 18 15 15 15 28 2 28
-5 0 -12 -11 -16 -25 -3 -14 -10 -25 -15 -25 -14 0 -11 18 7 45 18 28 42 23
50 -12z m-1960 5 c4 -6 2 -14 -4 -16 -7 -2 -10 -13 -7 -25 5 -22 -9 -56 -19
-46 -9 8 5 99 15 99 4 0 11 -5 15 -12z m2294 8 c0 -3 -4 -8 -10 -11 -5 -3 -10
-1 -10 4 0 6 5 11 10 11 6 0 10 -2 10 -4z m-60 -16 c0 -5 -2 -10 -4 -10 -3 0
-8 5 -11 10 -3 6 -1 10 4 10 6 0 11 -4 11 -10z m-1035 -25 c-39 -32 -58 -32
-22 0 15 14 33 25 40 25 7 -1 -1 -12 -18 -25z m555 -6 c0 -5 -9 -9 -20 -9 -11
0 -20 4 -20 8 0 4 9 8 20 9 11 1 20 -2 20 -8z m540 7 c0 -2 -9 -6 -20 -9 -11
-3 -20 -1 -20 4 0 5 9 9 20 9 11 0 20 -2 20 -4z m175 -6 c-3 -5 -11 -10 -16
-10 -6 0 -7 5 -4 10 3 6 11 10 16 10 6 0 7 -4 4 -10z m-525 -30 c0 -15 -26
-23 -41 -14 -9 5 -7 10 7 15 27 11 34 10 34 -1z m680 0 c0 -5 -10 -10 -22 -9
-22 0 -22 1 -3 9 11 5 21 9 23 9 1 1 2 -3 2 -9z m-91 -28 c-17 -2 -38 0 -47 4
-14 5 -12 8 8 13 14 4 35 2 47 -4 22 -10 22 -10 -8 -13z m-4044 -2 c-3 -5 -14
-10 -23 -10 -15 0 -15 2 -2 10 20 13 33 13 25 0z m2985 0 c-8 -5 -19 -10 -25
-10 -5 0 -3 5 5 10 8 5 20 10 25 10 6 0 3 -5 -5 -10z m-407 -78 c-4 -18 -2
-21 12 -15 15 5 17 2 11 -20 -5 -20 -2 -27 12 -32 24 -7 85 -82 73 -89 -5 -3
-20 3 -34 14 -14 11 -32 20 -41 20 -9 0 -16 4 -16 9 0 5 -9 11 -21 14 -17 5
-19 9 -10 26 14 26 14 26 -6 47 -17 17 -26 70 -16 88 10 16 42 -38 36 -62z
m1575 42 c9 -7 21 -81 15 -98 -5 -18 -6 -18 -23 5 -13 17 -16 27 -8 36 16 19
2 43 -32 54 -16 6 -28 15 -25 19 4 7 60 -5 73 -16z m-1528 5 c0 -8 14 -9 43
-5 34 6 40 5 30 -5 -21 -21 -15 -28 22 -22 27 4 35 2 35 -10 0 -21 -16 -25
-80 -21 -52 4 -53 3 -20 -7 45 -14 60 -27 60 -50 0 -25 -3 -24 -53 12 -47 34
-62 55 -47 64 5 3 10 11 10 16 0 6 -4 7 -10 4 -5 -3 -10 3 -10 14 0 12 5 21
10 21 6 0 10 -5 10 -11z m990 7 c0 -3 -4 -8 -10 -11 -5 -3 -10 -1 -10 4 0 6 5
11 10 11 6 0 10 -2 10 -4z m-2040 -16 c0 -5 -2 -10 -4 -10 -3 0 -8 5 -11 10
-3 6 -1 10 4 10 6 0 11 -4 11 -10z m2070 0 c0 -5 -4 -10 -10 -10 -5 0 -10 5
-10 10 0 6 5 10 10 10 6 0 10 -4 10 -10z m271 -30 c6 0 7 -5 4 -10 -10 -16
-25 -1 -24 23 1 17 2 18 6 5 2 -10 9 -18 14 -18z m-2361 -17 c0 -5 -9 -19 -20
-33 -15 -20 -21 -23 -31 -12 -11 10 -10 12 3 12 9 0 20 9 23 20 6 19 25 29 25
13z m1284 -8 c-5 -11 1 -15 25 -15 21 0 31 -5 31 -15 0 -8 -7 -15 -16 -15 -8
0 -12 5 -9 10 3 6 -1 10 -10 10 -9 0 -19 -9 -22 -20 -4 -14 -14 -20 -34 -20
-36 0 -36 10 0 49 32 34 44 39 35 16z m143 9 c-3 -3 -12 -4 -19 -1 -8 3 -5 6
6 6 11 1 17 -2 13 -5z m513 -4 c13 -8 11 -12 -7 -30 -25 -23 -41 -27 -24 -6 6
7 9 21 5 30 -7 18 3 20 26 6z m-1700 -10 c0 -5 -4 -10 -10 -10 -5 0 -10 5 -10
10 0 6 5 10 10 10 6 0 10 -4 10 -10z m2125 -10 c-3 -5 -11 -10 -16 -10 -6 0
-7 5 -4 10 3 6 11 10 16 10 6 0 7 -4 4 -10z m178 -4 c6 -14 -21 -32 -31 -21
-3 3 0 5 6 5 6 0 9 7 6 15 -4 8 -2 15 4 15 5 0 12 -6 15 -14z m-2363 -6 c0 -5
-5 -10 -11 -10 -5 0 -7 5 -4 10 3 6 8 10 11 10 2 0 4 -4 4 -10z m2130 6 c0 -2
-7 -9 -15 -16 -12 -10 -15 -10 -15 4 0 9 7 16 15 16 8 0 15 -2 15 -4z m-677
-48 c-14 -15 -20 -33 -18 -51 2 -15 0 -25 -4 -23 -4 3 -26 0 -48 -6 -44 -11
-98 -57 -76 -65 9 -3 4 -17 -14 -44 -14 -21 -25 -50 -25 -64 0 -14 -4 -28 -9
-31 -5 -3 -9 12 -9 33 0 48 64 183 90 190 10 3 23 17 30 32 8 21 16 27 34 24
13 -3 28 2 35 11 8 9 18 16 24 16 6 0 1 -10 -10 -22z m737 7 c0 -8 -9 -15 -20
-15 -11 0 -20 7 -20 15 0 8 9 15 20 15 11 0 20 -7 20 -15z m-236 -10 c6 -17 4
-18 -18 -9 -20 8 -21 24 -2 24 8 0 16 -7 20 -15z m408 -17 c-7 -7 -12 -8 -12
-2 0 14 12 26 19 19 2 -3 -1 -11 -7 -17z m53 -44 c-9 -24 -20 -42 -25 -39 -10
6 0 55 11 55 5 0 9 8 9 18 0 22 13 38 18 22 2 -6 -3 -31 -13 -56z m-244 18
c-7 -2 -18 1 -23 6 -8 8 -4 9 13 5 13 -4 18 -8 10 -11z m-2354 2 c-3 -3 -12
-4 -19 -1 -8 3 -5 6 6 6 11 1 17 -2 13 -5z m2222 -91 c-3 -38 -4 -71 -2 -75 3
-6 87 23 99 35 27 26 32 -18 8 -64 -13 -25 -20 -30 -40 -25 -17 5 -24 2 -24
-9 0 -8 6 -15 14 -15 8 0 22 -7 30 -16 10 -9 24 -13 36 -9 33 10 23 -13 -26
-61 -25 -26 -43 -51 -40 -59 6 -16 -19 -39 -34 -30 -5 3 -10 12 -10 20 0 21
-29 45 -45 39 -9 -4 -15 0 -15 10 0 9 -8 16 -20 16 -11 0 -20 5 -20 10 0 6 6
10 13 10 9 0 9 2 -1 9 -7 4 -11 19 -9 32 2 13 2 18 0 12 -6 -18 -11 -17 -45
12 -16 14 -35 25 -42 25 -18 0 -96 69 -96 86 0 8 9 14 20 14 11 0 20 -7 20
-15 0 -19 4 -19 39 -1 39 21 90 5 91 -28 0 -5 -13 -6 -30 -3 -32 7 -42 -8 -12
-17 21 -7 73 16 93 40 7 9 12 31 12 49 -1 20 5 36 13 39 8 3 14 12 14 21 0 8
3 15 8 15 4 0 5 -30 1 -67z m-2227 18 c-4 -11 -7 -10 -13 5 -12 29 -10 36 5
22 7 -7 11 -19 8 -27z m1268 24 c7 -8 19 -15 26 -15 8 0 14 -4 14 -10 0 -18
-32 -10 -62 15 -25 21 -27 25 -10 25 11 0 25 -7 32 -15z m-60 -34 c0 -9 -6
-26 -14 -36 -8 -11 -12 -25 -9 -31 7 -18 -25 -74 -42 -74 -8 0 -15 7 -15 15 0
8 5 15 10 15 6 0 10 7 10 15 0 8 -4 15 -10 15 -11 0 -1 63 12 68 4 2 8 10 8
17 0 13 28 25 43 18 4 -2 7 -12 7 -22z m1111 6 c-13 -13 -26 -3 -16 12 3 6 11
8 17 5 6 -4 6 -10 -1 -17z m-711 -16 c0 -6 -4 -13 -10 -16 -5 -3 -10 1 -10 9
0 9 5 16 10 16 6 0 10 -4 10 -9z m750 -1 c0 -5 -4 -10 -10 -10 -5 0 -10 5 -10
10 0 6 5 10 10 10 6 0 10 -4 10 -10z m220 1 c0 -6 -4 -13 -10 -16 -5 -3 -10 1
-10 9 0 9 5 16 10 16 6 0 10 -4 10 -9z m-120 -5 c0 -3 -4 -8 -10 -11 -5 -3
-10 -1 -10 4 0 6 5 11 10 11 6 0 10 -2 10 -4z m-1120 -27 c0 -5 -4 -9 -10 -9
-5 0 -10 7 -10 16 0 8 5 12 10 9 6 -3 10 -10 10 -16z m240 -5 c0 -8 -4 -12
-10 -9 -5 3 -10 10 -10 16 0 5 5 9 10 9 6 0 10 -7 10 -16z m-1372 -12 c-2 -11
4 -27 12 -37 14 -17 13 -18 -3 -12 -10 4 -21 7 -23 7 -2 0 -4 14 -4 30 0 17 5
30 11 30 5 0 9 -8 7 -18z m2382 14 c0 -3 -4 -8 -10 -11 -5 -3 -10 -1 -10 4 0
6 5 11 10 11 6 0 10 -2 10 -4z m-1020 -37 c0 -5 -7 -9 -15 -9 -15 0 -20 12 -9
23 8 8 24 -1 24 -14z m-1520 1 c0 -5 -4 -10 -10 -10 -5 0 -10 5 -10 10 0 6 5
10 10 10 6 0 10 -4 10 -10z m1196 -37 c-10 -10 -19 5 -10 18 6 11 8 11 12 0 2
-7 1 -15 -2 -18z m294 -2 c-14 -27 -36 -40 -27 -17 4 10 7 22 7 27 0 5 7 9 15
9 12 0 14 -4 5 -19z m-1486 -25 c-8 -33 -20 -33 -26 -1 -4 17 0 25 11 28 22 5
23 3 15 -27z m851 24 c8 -13 -35 -13 -55 0 -11 7 -7 10 17 10 17 0 35 -4 38
-10z m1655 -12 c0 -16 -3 -19 -11 -11 -6 6 -8 16 -5 22 11 17 16 13 16 -11z
m-52 -48 c3 -8 0 -10 -8 -5 -7 4 -16 2 -21 -6 -4 -7 -11 -10 -15 -6 -9 9 16
39 29 34 6 -2 13 -9 15 -17z m148 4 c8 3 14 -1 14 -9 0 -8 -7 -15 -16 -15 -8
0 -24 -19 -35 -45 -18 -40 -49 -62 -49 -35 0 6 7 10 15 10 9 0 15 9 15 25 0
32 -25 23 -46 -16 -8 -16 -19 -29 -24 -29 -13 0 -13 17 0 25 6 3 10 14 10 24
0 13 10 21 33 25 28 7 30 9 15 19 -15 10 -15 12 0 23 12 8 22 9 35 2 10 -5 25
-7 33 -4z m-2631 -4 c3 -5 1 -10 -4 -10 -6 0 -11 5 -11 10 0 6 2 10 4 10 3 0
8 -4 11 -10z m1975 6 c0 -3 -4 -8 -10 -11 -5 -3 -10 -1 -10 4 0 6 5 11 10 11
6 0 10 -2 10 -4z m-1550 -91 c0 -8 -2 -15 -4 -15 -2 0 -6 7 -10 15 -3 8 -1 15
4 15 6 0 10 -7 10 -15z m60 -5 c0 -5 -5 -10 -11 -10 -5 0 -7 5 -4 10 3 6 8 10
11 10 2 0 4 -4 4 -10z m47 -27 c-3 -10 -5 -4 -5 12 0 17 2 24 5 18 2 -7 2 -21
0 -30z m2223 33 c0 -2 -11 -6 -25 -8 -14 -3 -25 -1 -25 3 0 5 11 9 25 9 14 0
25 -2 25 -4z m-2522 -23 c12 -10 24 -31 27 -48 l6 -30 -23 28 c-13 15 -29 27
-36 27 -7 0 -12 9 -12 20 0 25 11 25 38 3z m172 -18 c0 -8 -4 -17 -10 -20 -6
-4 -10 5 -10 20 0 15 4 24 10 20 6 -3 10 -12 10 -20z m1625 5 c-10 -11 -25
-20 -33 -20 -12 0 -12 4 3 20 10 11 25 20 33 20 12 0 12 -4 -3 -20z m-1555 -4
c0 -2 -3 -12 -6 -21 -5 -13 -9 -14 -15 -3 -7 11 -11 10 -19 -2 -8 -12 -10 -11
-10 8 0 17 6 22 25 22 14 0 25 -2 25 -4z m210 -6 c0 -5 -7 -10 -16 -10 -8 0
-12 5 -9 10 3 6 10 10 16 10 5 0 9 -4 9 -10z m2027 -12 c-3 -8 -6 -5 -6 6 -1
11 2 17 5 13 3 -3 4 -12 1 -19z m200 16 c-3 -3 -12 -4 -19 -1 -8 3 -5 6 6 6
11 1 17 -2 13 -5z m-1134 -24 c-4 -16 -8 -18 -19 -9 -16 13 -10 29 11 29 8 0
11 -7 8 -20z m970 -31 c3 -13 1 -19 -6 -16 -15 5 -22 37 -9 37 5 0 12 -9 15
-21z"/>
<path d="M3510 3691 c0 -10 30 -24 37 -17 3 2 -5 9 -16 16 -12 6 -21 7 -21 1z"/>
<path d="M2440 1581 c0 -5 5 -13 10 -16 6 -3 10 -2 10 4 0 5 -4 13 -10 16 -5
3 -10 2 -10 -4z"/>
<path d="M2440 1540 c0 -5 5 -10 10 -10 6 0 10 5 10 10 0 6 -4 10 -10 10 -5 0
-10 -4 -10 -10z"/>
<path d="M1300 1520 c0 -5 5 -10 10 -10 6 0 10 5 10 10 0 6 -4 10 -10 10 -5 0
-10 -4 -10 -10z"/>
<path d="M3768 1536 c-12 -9 -14 -16 -7 -29 18 -32 43 -11 30 25 -5 13 -9 14
-23 4z"/>
<path d="M3760 1464 c0 -8 5 -12 10 -9 6 4 8 11 5 16 -9 14 -15 11 -15 -7z"/>
<path d="M3760 1428 c0 -11 22 -10 39 1 10 7 7 9 -12 8 -15 -1 -27 -5 -27 -9z"/>
<path d="M3915 1265 c-16 -7 -33 -11 -37 -8 -5 2 -8 -3 -8 -13 0 -13 6 -15 31
-10 17 3 35 6 39 6 11 0 21 28 12 33 -4 2 -20 -1 -37 -8z"/>
<path d="M3728 1170 c-6 -37 7 -48 22 -20 6 11 8 20 4 20 -3 0 -1 7 6 15 10
12 9 15 -8 15 -14 0 -21 -8 -24 -30z"/>
<path d="M2085 1350 c-3 -5 -1 -10 4 -10 6 0 11 5 11 10 0 6 -2 10 -4 10 -3 0
-8 -4 -11 -10z"/>
<path d="M2060 1254 c0 -10 31 -36 37 -31 3 3 -2 13 -10 22 -16 15 -27 19 -27
9z"/>
<path d="M2052 1213 c3 -36 -2 -53 -16 -53 -7 0 -16 -9 -19 -21 -4 -13 -10
-18 -18 -13 -8 5 -10 3 -3 -7 14 -23 14 -90 -1 -95 -7 -3 -16 -12 -19 -20 -7
-18 3 -46 15 -39 4 3 6 12 3 20 -11 27 7 38 27 16 10 -11 19 -25 19 -30 0 -5
5 -13 11 -17 8 -4 9 0 4 15 -6 21 8 30 20 11 4 -6 11 -8 16 -4 5 3 16 1 23 -5
10 -8 17 -7 26 4 11 13 9 19 -6 38 -36 42 -54 48 -54 18 0 -25 -18 -37 -33
-21 -9 10 -9 14 1 17 6 3 12 12 12 20 0 11 8 14 31 11 25 -4 32 -1 40 19 13
34 1 71 -24 75 -28 4 -34 28 -8 35 12 3 21 10 21 15 0 6 -6 8 -14 5 -7 -3 -23
1 -35 9 -19 14 -21 13 -19 -3z"/>
<path d="M1982 1188 c5 -15 28 -23 28 -10 0 5 -7 13 -16 16 -10 4 -14 1 -12
-6z"/>
<path d="M2192 1131 c4 -13 18 -16 19 -4 0 4 -5 9 -11 12 -7 2 -11 -2 -8 -8z"/>
<path d="M1950 1070 c0 -19 3 -21 12 -12 9 9 9 15 0 24 -9 9 -12 7 -12 -12z"/>
<path d="M2200 1065 c0 -8 4 -15 10 -15 5 0 7 7 4 15 -4 8 -8 15 -10 15 -2 0
-4 -7 -4 -15z"/>
<path d="M2370 1014 c0 -1 6 -7 14 -13 10 -9 15 -8 19 3 4 10 0 14 -14 13 -10
-1 -19 -2 -19 -3z"/>
<path d="M2330 998 c0 -10 -4 -18 -9 -18 -5 0 -11 -8 -15 -17 -3 -10 -9 -24
-12 -30 -4 -8 2 -13 15 -13 13 0 26 10 32 24 7 14 17 22 25 19 9 -3 14 2 14
12 0 11 -5 15 -15 11 -8 -3 -19 2 -24 12 -10 16 -10 16 -11 0z"/>
<path d="M2265 980 c3 -5 8 -10 11 -10 2 0 4 5 4 10 0 6 -5 10 -11 10 -5 0 -7
-4 -4 -10z"/>
<path d="M2225 960 c3 -5 11 -10 16 -10 6 0 7 5 4 10 -3 6 -11 10 -16 10 -6 0
-7 -4 -4 -10z"/>
<path d="M2086 931 c7 -33 6 -34 -19 -27 -21 5 -27 3 -27 -9 0 -12 8 -15 28
-13 21 2 28 9 30 32 2 16 -1 33 -7 39 -8 8 -10 2 -5 -22z"/>
<path d="M2000 941 c0 -6 5 -13 10 -16 6 -3 10 1 10 9 0 9 -4 16 -10 16 -5 0
-10 -4 -10 -9z"/>
<path d="M2441 908 c0 -13 3 -17 6 -10 2 6 11 12 19 12 8 0 14 5 14 10 0 6 -9
10 -20 10 -14 0 -20 -6 -19 -22z"/>
<path d="M3643 1009 c-6 -6 -8 -19 -6 -30 4 -15 8 -17 19 -8 15 12 19 49 6 49
-4 0 -13 -5 -19 -11z"/>
<path d="M3313 983 c-18 -2 -33 -9 -33 -15 0 -6 12 -8 31 -4 17 3 35 6 40 6 5
0 9 5 9 10 0 6 -3 9 -7 8 -5 0 -23 -3 -40 -5z"/>
<path d="M3901 674 c-7 -8 -11 -18 -7 -21 9 -10 36 6 36 22 0 19 -11 19 -29
-1z"/>
<path d="M1980 689 c0 -5 5 -7 10 -4 6 3 10 8 10 11 0 2 -4 4 -10 4 -5 0 -10
-5 -10 -11z"/>
<path d="M1881 654 c0 -11 3 -14 6 -6 3 7 2 16 -1 19 -3 4 -6 -2 -5 -13z"/>
<path d="M2000 591 c0 -22 3 -40 8 -39 4 0 15 -2 25 -7 10 -4 21 -5 24 -1 11
11 -11 58 -34 74 -23 14 -23 14 -23 -27z"/>
<path d="M2258 623 c7 -3 16 -2 19 1 4 3 -2 6 -13 5 -11 0 -14 -3 -6 -6z"/>
<path d="M1991 528 c0 -9 -7 -18 -13 -21 -10 -3 -10 -8 1 -21 12 -14 12 -19 2
-26 -10 -6 -10 -9 -1 -15 20 -13 28 8 20 55 -4 25 -8 38 -9 28z"/>
<path d="M2055 449 c-10 -15 3 -25 16 -12 7 7 7 13 1 17 -6 3 -14 1 -17 -5z"/>
<path d="M1975 420 c-3 -5 -1 -10 4 -10 6 0 11 5 11 10 0 6 -2 10 -4 10 -3 0
-8 -4 -11 -10z"/>
<path d="M3898 276 c-22 -10 -25 -15 -16 -24 10 -10 10 -15 -2 -22 -13 -8 -12
-11 5 -24 19 -14 20 -12 27 16 3 17 12 34 19 39 25 15 -4 27 -33 15z"/>
<path d="M3876 171 c-3 -5 7 -11 22 -14 32 -6 42 0 22 13 -19 12 -37 13 -44 1z"/>
<path d="M2395 3170 c-3 -5 -2 -10 4 -10 5 0 13 5 16 10 3 6 2 10 -4 10 -5 0
-13 -4 -16 -10z"/>
<path d="M2390 3079 c0 -5 5 -7 10 -4 6 3 10 8 10 11 0 2 -4 4 -10 4 -5 0 -10
-5 -10 -11z"/>
<path d="M3071 2966 c-15 -18 -4 -46 18 -46 24 0 29 7 23 35 -5 28 -23 32 -41
11z"/>
<path d="M3140 2935 c0 -10 10 -15 33 -14 17 1 24 3 15 6 -10 2 -18 9 -18 14
0 5 -7 9 -15 9 -8 0 -15 -7 -15 -15z"/>
<path d="M1435 1740 c-3 -5 -2 -10 4 -10 5 0 13 5 16 10 3 6 2 10 -4 10 -5 0
-13 -4 -16 -10z"/>
<path d="M1946 1734 c-18 -17 -18 -21 -6 -49 7 -17 9 -16 9 11 1 16 6 35 13
42 7 7 9 12 6 12 -4 0 -14 -7 -22 -16z"/>
<path d="M5196 1321 c-3 -5 1 -11 9 -15 9 -3 15 0 15 9 0 16 -16 20 -24 6z"/>
<path d="M5555 1276 c11 -8 27 -16 35 -16 20 0 1 16 -30 25 -24 7 -24 7 -5 -9z"/>
<path d="M900 1260 c-13 -8 -12 -10 3 -10 9 0 17 5 17 10 0 12 -1 12 -20 0z"/>
<path d="M5620 1251 c0 -12 54 -51 70 -51 9 0 9 4 2 13 -17 19 -72 49 -72 38z"/>
<path d="M1710 1213 c-16 -20 -18 -28 -8 -34 13 -8 30 10 22 23 -3 4 2 8 10 8
9 0 16 7 16 15 0 23 -16 18 -40 -12z"/>
<path d="M845 1220 c-3 -5 -1 -10 4 -10 6 0 11 5 11 10 0 6 -2 10 -4 10 -3 0
-8 -4 -11 -10z"/>
<path d="M570 1189 c0 -5 5 -7 10 -4 6 3 10 8 10 11 0 2 -4 4 -10 4 -5 0 -10
-5 -10 -11z"/>
<path d="M5580 1191 c0 -5 8 -15 17 -22 15 -12 16 -12 10 3 -4 12 0 18 16 21
15 3 12 5 -10 6 -18 0 -33 -3 -33 -8z"/>
<path d="M640 1176 c0 -21 21 -31 30 -15 5 7 6 17 4 21 -9 14 -34 9 -34 -6z"/>
<path d="M788 1183 c6 -2 18 -2 25 0 6 3 1 5 -13 5 -14 0 -19 -2 -12 -5z"/>
<path d="M5730 1186 c0 -2 7 -7 16 -10 8 -3 12 -2 9 4 -6 10 -25 14 -25 6z"/>
<path d="M5798 1153 c7 -3 16 -2 19 1 4 3 -2 6 -13 5 -11 0 -14 -3 -6 -6z"/>
<path d="M5831 1128 c0 -13 83 -78 98 -78 11 0 41 -57 41 -76 0 -8 9 -19 20
-26 11 -7 20 -21 20 -30 0 -9 8 -21 17 -27 10 -5 15 -13 11 -17 -4 -4 -14 -1
-23 6 -8 7 -22 10 -30 6 -14 -5 -13 -10 6 -35 23 -31 65 -55 80 -46 5 4 9 42
9 85 0 75 -1 79 -30 103 -16 14 -39 28 -50 32 -11 3 -20 12 -20 18 0 13 -120
97 -138 97 -7 0 -12 -6 -11 -12z"/>
<path d="M310 1105 c-8 -9 -8 -15 -2 -15 12 0 26 19 19 26 -2 2 -10 -2 -17
-11z"/>
<path d="M950 1109 c0 -5 5 -7 10 -4 6 3 10 8 10 11 0 2 -4 4 -10 4 -5 0 -10
-5 -10 -11z"/>
<path d="M4616 1035 c-4 -22 -19 -88 -32 -146 -24 -109 -43 -302 -25 -264 5
11 10 41 10 66 1 25 5 59 10 75 47 152 52 176 49 241 -3 65 -3 66 -12 28z"/>
<path d="M5874 1024 c3 -9 6 -20 6 -25 0 -4 7 -6 15 -3 24 9 19 44 -6 44 -15
0 -19 -4 -15 -16z"/>
<path d="M200 970 c0 -5 5 -10 10 -10 6 0 10 5 10 10 0 6 -4 10 -10 10 -5 0
-10 -4 -10 -10z"/>
<path d="M380 961 c0 -5 -3 -16 -6 -24 -4 -12 0 -14 17 -10 13 4 18 8 11 11
-7 2 -10 8 -7 12 3 5 1 11 -5 15 -5 3 -10 2 -10 -4z"/>
<path d="M145 916 c-19 -29 -51 -45 -41 -21 3 9 0 15 -9 15 -8 0 -15 -4 -15
-10 0 -5 -4 -10 -10 -10 -18 0 -70 -59 -70 -80 0 -26 16 -26 30 0 6 11 18 20
27 20 20 0 125 98 113 105 -5 3 -16 -5 -25 -19z"/>
<path d="M25 920 c-3 -6 1 -7 9 -4 18 7 21 14 7 14 -6 0 -13 -4 -16 -10z"/>
<path d="M5955 910 c3 -5 8 -10 11 -10 2 0 4 5 4 10 0 6 -5 10 -11 10 -5 0 -7
-4 -4 -10z"/>
<path d="M5895 880 c3 -5 10 -10 16 -10 5 0 9 5 9 10 0 6 -7 10 -16 10 -8 0
-12 -4 -9 -10z"/>
<path d="M1182 735 c2 -20 -1 -29 -10 -27 -7 1 -15 -5 -18 -13 -10 -25 -27
-17 -20 10 4 14 2 25 -3 25 -15 0 -52 -126 -55 -188 -5 -73 3 -129 15 -111 7
11 9 11 9 -2 0 -9 11 -28 24 -42 26 -28 46 -77 46 -113 0 -25 15 -30 39 -15
17 11 8 78 -16 125 -20 36 -27 159 -12 208 16 54 21 136 9 155 -9 15 -10 13
-8 -12z"/>
<path d="M240 669 c0 -5 5 -7 10 -4 6 3 10 8 10 11 0 2 -4 4 -10 4 -5 0 -10
-5 -10 -11z"/>
<path d="M2 575 c0 -16 2 -22 5 -12 2 9 2 23 0 30 -3 6 -5 -1 -5 -18z"/>
<path d="M78 593 c7 -3 16 -2 19 1 4 3 -2 6 -13 5 -11 0 -14 -3 -6 -6z"/>
<path d="M4542 580 c0 -14 2 -19 5 -12 2 6 2 18 0 25 -3 6 -5 1 -5 -13z"/>
</g>
</svg>
